<svg xmlns="http://www.w3.org/2000/svg" viewBox="0 0 700 125"><path fill="#E12726" stroke="#E12726" stroke-miterlimit="10" d="M216.6 50.3c24.1 0 46.1 5.1 46.1 11.1v2.3c0 5.6-21.9 10.9-46.1 10.9-6.6 0-198.9-10.9-198.9-10.9v-2.3s192.4-11.1 198.9-11.1m0 22.3c24.1 0 43.6-4.9 43.6-10 0-5.3-19.4-10.3-43.6-10.3-6.5 0-177.1 10.3-177.1 10.3s170.6 10 177.1 10"/><path d="M362.3 51.7c5.3 0 5.3 5.2 5.3 5.2V60s0 5.1-5.3 5.1h-3.1l8.3 2.9-2.7 5.2-21.5-8.1v8.1H338V51.7h24.3Zm-18.9 5.2v2.7h18.2c.7 0 .7-.6.7-.6v-1.4s0-.7-.7-.7h-18.2Zm51.3-5.2c5.1 0 5.1 5.2 5.1 5.2v11.2s0 5.2-5.1 5.2h-18.9c-5.2 0-5.2-5.2-5.2-5.2V56.9s0-5.2 5.2-5.2h18.9Zm-18.2 5.2c-.8 0-.8.7-.8.7v9.8s0 .7.8.7H394c.7 0 .7-.7.7-.7v-9.8s0-.7-.7-.7h-17.5Zm31.6-5.2h24.2v5.2h-23.4c-.7 0-.7.7-.7.7v9.8s0 .7.7.7h23.4v5.2h-24.2c-5.3 0-5.3-5.2-5.3-5.2V56.9s0-5.2 5.3-5.2m32.4 7.9 22.2-7.9 1.9 5.2-16.7 5.7 16.7 5.5-1.9 5.1-22.2-7.6v7.6h-5.3V51.7h5.3Zm56.5-7.9v5.2h-24.2V60H497v5.1h-24.2v3H497v5.1h-29.5V51.7Zm32.4 0v5.2h-12.2v16.3H512V56.9h-12v-5.2Zm14.3 0h5.3v16.4h24.2v5.1h-29.5Zm37.6 0h19.1c5.2 0 5.2 5.2 5.2 5.2v16.3h-5.2v-8.1h-19.1v8.1h-5.1V56.9s0-5.2 5.1-5.2m19.1 8.3v-2.4s0-.7-.7-.7H582c-.7 0-.7.7-.7.7V60h19.1Zm32.3-8.3c5.3 0 5.3 5.2 5.3 5.2V60c0 1.5-.7 2.6-.7 2.6s.7 1 .7 2.5V68s0 5.2-5.3 5.2h-24.1V51.7h24.1Zm-18.8 5.2V60H632c.8 0 .8-.7.8-.7v-1.7s0-.7-.8-.7h-18.1Zm0 8.2V68H632c.8 0 .8-.7.8-.7v-1.5s0-.7-.8-.7h-18.1Z"/><path fill="#8B8A8D" stroke="#8B8A8D" stroke-miterlimit="10" d="M267.1 49.6c19 0 27.4 7.8 27.4 8.6v8.6c0 1-8.5 8.4-27.4 8.4zm2 23.6c14.5 0 23.4-6.4 23.4-7.2v-6.8c-.1-.9-10.4-7.5-23.4-7.5zm61.2-13.6c1.5 0 3 1 3 3s-1.4 3-3 3H302c-1.3 0-2.9-1-2.9-3 0-2.1 1.5-3 2.9-3Zm.1 4c.5 0 1-.4 1-1s-.4-1.1-1-1.1H302c-.5 0-.9.5-.9 1.1 0 .5.5 1 1 1zm2.9-16.8H299l9.8-34.1h14.8zM302 44.7h28.3l-8.5-29.9h-11.1zm-2.9 33.5h34.3l-9.7 34.1H309zm11.6 32h11.1l8.5-29.9H302z"/><path fill="#8B8A8D" d="M535.6 63.6c-1.4 0-1.5-2.1 0-2.1 1.4 0 1.4 2.1 0 2.1m0-4c-4.1 0-4.1 6 0 6s4.1-6 0-6"/><path fill="#8B8A8D" stroke="#8B8A8D" stroke-miterlimit="10" d="M658.9 74.3h-16.3V50.7h16.3l20.6 8.3c1.7.7 2.7 2 2.7 3.5s-1 2.9-2.7 3.6zm19.8-10.2c.8-.3 1.3-.9 1.3-1.5s-.5-1.1-1.3-1.5L658.5 53h-13.7v19.1h13.7z"/></svg>